<svg width="1008" height="704" viewBox="0 0 1008 704" fill="none" xmlns="http://www.w3.org/2000/svg">
<g clip-path="url(#clip0_11269_6766)">
<rect width="1007.88" height="703.44" rx="50" fill="url(#paint0_linear_11269_6766)"/>
<path d="M751.543 501.896C724.913 502.903 704.536 514.668 690.349 537.226C687.811 541.244 681.626 539.587 681.437 534.838C680.429 508.209 668.664 487.832 646.106 473.644C642.088 471.106 643.746 464.921 648.494 464.732C675.124 463.725 695.501 451.96 709.688 429.402C712.226 425.384 718.411 427.041 718.6 431.79C719.608 458.419 731.373 478.797 753.931 492.984C757.948 495.522 756.291 501.707 751.543 501.896Z" fill="#FBB0B7"/>
<path d="M817.697 244.903C809.157 245.226 802.622 248.999 798.072 256.233C797.259 257.521 795.275 256.99 795.214 255.467C794.891 246.927 791.118 240.392 783.884 235.843C782.596 235.029 783.127 233.045 784.65 232.984C793.19 232.661 799.725 228.888 804.274 221.654C805.088 220.366 807.072 220.897 807.133 222.42C807.456 230.96 811.229 237.495 818.463 242.045C819.751 242.858 819.22 244.842 817.697 244.903Z" fill="#FBB0B7"/>
<path d="M656.944 233.791C634.168 234.653 616.74 244.715 604.606 264.009C602.435 267.445 597.145 266.028 596.983 261.966C596.122 239.191 586.059 221.762 566.766 209.628C563.33 207.457 564.747 202.167 568.808 202.006C591.584 201.144 609.013 191.082 621.147 171.788C623.317 168.352 628.607 169.769 628.769 173.83C629.631 196.606 639.693 214.035 658.987 226.169C662.423 228.34 661.005 233.63 656.944 233.791Z" fill="#FBB0B7"/>
<path d="M764.401 116.286C741.625 117.148 724.197 127.21 712.063 146.503C709.892 149.94 704.602 148.522 704.441 144.461C703.579 121.685 693.517 104.257 674.223 92.1227C670.787 89.9519 672.204 84.662 676.265 84.5002C699.041 83.6385 716.47 73.5762 728.604 54.2826C730.774 50.8463 736.064 52.2638 736.226 56.325C737.088 79.1008 747.15 96.5293 766.444 108.663C769.88 110.834 768.462 116.124 764.401 116.286Z" fill="#FBB0B7"/>
<path d="M946.38 302.355C928.322 303.038 914.504 311.016 904.884 326.313C903.163 329.037 898.968 327.913 898.84 324.693C898.157 306.635 890.179 292.817 874.882 283.197C872.157 281.476 873.281 277.281 876.501 277.153C894.559 276.47 908.377 268.492 917.998 253.195C919.719 250.47 923.913 251.594 924.042 254.814C924.725 272.872 932.703 286.69 948 296.311C950.724 298.032 949.6 302.226 946.38 302.355Z" fill="#FBB0B7"/>
<path d="M359.723 150.062C240.049 154.589 148.472 207.46 84.7147 308.837C73.3086 326.893 45.5131 319.445 44.6629 298.106C40.1356 178.432 -12.7366 86.8553 -114.113 23.0976C-132.169 11.6915 -124.721 -16.1043 -103.382 -16.9545C16.2922 -21.4818 107.869 -74.3539 171.627 -175.731C183.033 -193.786 210.829 -186.339 211.679 -164.999C216.206 -45.3252 269.078 46.2519 370.455 110.01C388.51 121.416 381.063 149.212 359.723 150.062Z" fill="#FBB0B7"/>
<path d="M883.034 461.734L856.781 486.5L1271.25 925.858L1297.5 901.093L883.034 461.734Z" fill="#FFF8EB"/>
<path d="M836.464 413.598C829.619 406.344 818.207 406.017 810.953 412.848C803.7 419.693 803.373 431.105 810.204 438.358L836.832 466.596L863.092 441.835L836.464 413.598Z" fill="#FBB0B7"/>
<path opacity="0.67" d="M1007.88 0.0010376H0.00195312V1007.88H1007.88V0.0010376Z" fill="url(#paint1_linear_11269_6766)"/>
<path d="M454.613 752.355C384.593 755.004 331.011 785.939 293.707 845.254C287.033 855.818 270.77 851.461 270.273 838.975C267.624 768.954 236.688 715.373 177.373 678.069C166.809 671.395 171.166 655.132 183.652 654.634C253.673 651.985 307.254 621.05 344.559 561.735C351.233 551.17 367.496 555.528 367.993 568.014C370.642 638.035 401.577 691.616 460.893 728.921C471.457 735.594 467.099 751.858 454.613 752.355Z" fill="#FBB0B7"/>
<g clip-path="url(#clip1_11269_6766)">
<path d="M306.627 633.977L328.834 797.697H678.206L700.413 633.977H306.627Z" fill="#F04A4C"/>
<path d="M304.967 621.764L306.626 633.978H469.766V621.764H304.967Z" fill="#BB3939"/>
<path d="M702.074 621.764H537.732V633.978H700.414L702.074 621.764Z" fill="#BB3939"/>
<path d="M537.73 633.977H469.766V797.697H537.73V633.977Z" fill="#ED9829"/>
<path d="M537.73 621.764H469.766V633.978H537.73V621.764Z" fill="#DD8924"/>
<path d="M593.317 524.062C562.526 564.359 519.77 564.371 519.77 564.371C519.892 564.164 520.027 563.962 520.149 563.761L512.449 566.647H595.459C616.373 565.469 631.54 547.703 643.449 532.42C647.079 527.759 649.55 523.086 650.605 518.297C620.851 517.04 602.463 521.115 593.324 524.068L593.317 524.062Z" fill="#ED9829"/>
<path d="M417.423 524.062C448.214 564.359 490.97 564.371 490.97 564.371C490.848 564.164 490.714 563.962 490.592 563.761L498.291 566.647H415.281C394.367 565.469 379.2 547.703 367.291 532.42C363.661 527.759 361.19 523.086 360.135 518.297C389.889 517.04 408.277 521.115 417.417 524.068L417.423 524.062Z" fill="#ED9829"/>
<path d="M595.457 521.175C594.749 522.164 594.036 523.115 593.316 524.061C602.455 521.108 620.843 517.039 650.598 518.289C651.934 512.213 650.982 505.953 647.205 499.309C641.324 488.962 631.953 480.848 622.832 473.423C613.577 465.894 603.23 459.708 592.217 455.108C580.613 450.258 570.248 446.42 558.827 453.631C549.328 459.623 541.421 467.822 535.234 477.163C511.172 513.506 509.879 566.64 509.879 566.64H512.447L520.147 563.754C544.398 524.329 595.457 521.175 595.457 521.175Z" fill="#FBB12F"/>
<path d="M415.279 521.175C415.987 522.164 416.701 523.115 417.421 524.061C408.282 521.108 389.893 517.039 360.139 518.289C358.803 512.213 359.755 505.953 363.531 499.309C369.412 488.962 378.783 480.848 387.904 473.423C397.16 465.894 407.507 459.708 418.519 455.108C430.123 450.258 440.489 446.42 451.91 453.631C461.409 459.623 469.316 467.822 475.502 477.163C499.564 513.506 500.858 566.64 500.858 566.64H498.289L490.59 563.754C466.338 524.329 415.279 521.175 415.279 521.175Z" fill="#FBB12F"/>
<path d="M706.412 562.663H301.089C296.203 562.663 292.242 566.624 292.242 571.509V612.917C292.242 617.802 296.203 621.763 301.089 621.763H706.412C711.298 621.763 715.258 617.802 715.258 612.917V571.509C715.258 566.624 711.298 562.663 706.412 562.663Z" fill="#F04A4C"/>
<path d="M545.911 562.663H461.352V621.763H545.911V562.663Z" fill="#FBB12F"/>
</g>
</g>
<defs>
<linearGradient id="paint0_linear_11269_6766" x1="503.939" y1="0" x2="503.939" y2="703.44" gradientUnits="userSpaceOnUse">
<stop stop-color="white"/>
<stop offset="1" stop-color="#FBB0B7"/>
</linearGradient>
<linearGradient id="paint1_linear_11269_6766" x1="147.51" y1="147.652" x2="860.188" y2="860.33" gradientUnits="userSpaceOnUse">
<stop stop-color="#FBB7BD"/>
<stop offset="0.86" stop-color="#FBB0B7" stop-opacity="0"/>
</linearGradient>
<clipPath id="clip0_11269_6766">
<rect width="1007.88" height="703.44" rx="50" fill="white"/>
</clipPath>
<clipPath id="clip1_11269_6766">
<rect width="423.016" height="348.054" fill="white" transform="translate(292.238 449.642)"/>
</clipPath>
</defs>
</svg>
