<svg width="328" height="98" viewBox="0 0 328 98" fill="none" xmlns="http://www.w3.org/2000/svg">
<path d="M32.0836 60.2209C28.4101 61.3542 26.0262 63.7576 24.8929 67.4116C24.6975 68.076 23.7594 68.076 23.564 67.4116C22.4307 63.7381 20.0273 61.3542 16.3733 60.2209C15.7089 60.0255 15.7089 59.0875 16.3733 58.8921C20.0468 57.7588 22.4307 55.3554 23.564 51.7014C23.7594 51.037 24.6975 51.037 24.8929 51.7014C26.0262 55.3749 28.4296 57.7588 32.0836 58.8921C32.748 59.0875 32.748 60.0255 32.0836 60.2209Z" fill="#EAC060"></path>
<path d="M43.555 78.2777L43.4377 78.1604V33.6676L48.4204 28.6849V25.1482C48.4204 24.2298 47.6779 23.5068 46.779 23.5068H41.4837L28.1769 9.34017L29.1539 8.34367C29.6034 7.89424 29.6815 7.21031 29.3688 6.66319L26.1447 1.1138C25.7343 0.410357 25.0114 0 24.2102 0C23.4091 0 22.6861 0.410357 22.2758 1.1138L19.0516 6.66319C18.739 7.21031 18.8172 7.89424 19.2666 8.34367L20.2436 9.34017L6.93683 23.5068H1.64142C0.742577 23.5068 0 24.2493 0 25.1482V28.6849L4.98282 33.6676V78.1604L4.86559 78.2777C3.12652 80.0363 0 83.1823 0 83.1823V86.8754C0 87.6765 0.664364 88.3409 1.46551 88.3409H13.7368L20.8689 95.942C21.7287 96.8603 22.9401 97.388 24.2102 97.388C24.8355 97.388 25.4608 97.2512 26.0274 97.0167C26.5941 96.7627 27.1217 96.4109 27.5516 95.942L34.6837 88.3409H46.9549C47.7561 88.3409 48.4204 87.6765 48.4204 86.8754V83.1823C48.4204 83.1823 45.2941 80.0363 43.555 78.2777ZM24.0539 2.01263L22.7643 6.66319L23.6632 9.88729L21.0447 7.26892L24.0344 2.01263H24.0539ZM22.3539 11.4115H22.3734L18.6022 20.1264L24.4838 23.4481H10.9815L22.3539 11.4115ZM2.65755 26.8872H24.4838L14.3816 28.763L15.7689 30.5803H6.35054L2.65755 26.8872ZM11.5678 41.8159L7.73793 37.5561V33.8239H19.2666L11.0793 36.4619L11.5678 41.8354V41.8159ZM11.7827 47.4629V77.8674H7.75749V40.8779L10.1609 43.3986C11.216 44.4929 11.7827 45.9388 11.7827 47.4629ZM2.67699 85.1754L6.37009 81.4823H15.7884L14.4011 83.2995L24.5034 85.1558H2.67699V85.1754ZM24.0734 94.1443L18.1528 88.3604L24.0344 91.4673L28.001 90.0017L24.0734 94.1443ZM33.9607 77.8674H14.5184V47.4629C14.5184 45.9584 15.1045 44.4929 16.1402 43.3986L24.2298 34.9182L32.3194 43.3986C33.355 44.4929 33.9412 45.9388 33.9412 47.4629V77.8674H33.9607ZM40.7412 77.8674H36.7159V47.4629C36.7159 45.9584 37.3021 44.4929 38.3377 43.3986L40.7412 40.8779V77.8674Z" fill="#192351"></path>
<path d="M81.736 39.7988V76.3193H74.6234V39.7988H73.2361L61.1212 41.0103L60.9453 40.7172L62.274 35.5L67.1005 36.1253H90.8808L95.4141 35.5L95.5313 35.7931L94.2613 40.9712L82.6545 39.8183H81.736V39.7988Z" fill="#192351"></path>
<path d="M116.893 60.4955L109.136 60.0265V76.3425H102.062V36.1484H117.734C125.667 36.1484 130.024 39.9979 130.024 46.1335C130.024 51.3507 126.8 55.1024 122.853 57.9552L134.343 76.0494V76.3425H126.194L116.893 60.4955ZM109.136 40.33V56.5288L119.023 56.0208C120.977 54.0081 122.755 51.1357 122.755 47.3449C122.755 42.3427 119.824 39.9392 114.314 39.9392C112.653 39.9392 110.641 40.1151 109.136 40.3496V40.33Z" fill="#192351"></path>
<path d="M167.712 44.4139L166.285 36.7151V36.1484H173.398L172.772 46.4852V62.2736C172.772 67.2173 171.444 70.6563 169.04 73.0793C166.461 75.7172 162.26 77.2218 156.691 77.2218C151.747 77.2218 146.979 76.0689 143.99 73.0793C141.684 70.7149 140.492 67.3345 140.492 62.6839V36.1484H147.722V62.5667C147.722 66.3575 148.406 68.9368 150.086 70.5586C151.689 72.1023 154.229 72.8643 157.961 72.8643C162.162 72.8643 165.132 71.8873 166.695 70.9103C167.203 69.4839 167.731 66.4942 167.731 63.5046V44.4335L167.712 44.4139Z" fill="#192351"></path>
<path d="M183.109 36.1254H203.275L207.749 35.2656L207.808 35.5587L206.538 40.4437L190.163 39.9748V54.2195L206.069 53.9264V54.1609L205.033 58.3034L190.163 57.7954V72.6067L208.433 71.9815V72.2746L207.339 76.3585H183.109V36.1645V36.1254Z" fill="#192351"></path>
<path d="M233.992 36.125H241.066V76.319H233.992V36.125Z" fill="#192351"></path>
<path d="M252.359 36.125H259.433V72.5869L276.316 71.9616V72.2546L275.221 76.3385H252.359V36.1445V36.125Z" fill="#192351"></path>
<path d="M288.605 76.3427H282.117L287.334 40.5061L285.615 36.5395V36.2464L292.962 35.6797L305.429 65.2048L315.883 39.5877L315.472 36.7153V36.4222L322.546 35.7969L327.997 76.3427H320.768L316.86 47.2865L304.921 76.3427H302.849L290.324 47.5014L288.077 71.7312L288.585 76.03V76.3231L288.605 76.3427Z" fill="#192351"></path>
</svg>